<svg xmlns="http://www.w3.org/2000/svg" width="1024" height="1024" viewBox="0 0 1024 1024">
<g>
<path d="M 0.00 -0.02 L 102.25 0.27 C203.45,0.55 204.59,0.57 213.23,2.73 C214.24,2.98 215.25,3.24 216.25,3.50 C203.30,0.83 183.62,1.04 102.75,1.02 L 1.00 1.00 L 1.00 405.00 L 207.20 405.00 C198.16,405.90 178.27,405.96 102.25,405.98 L 0.00 406.00 L 0.00 -0.02 ZM 745.21 350.34 C745.08,313.21 745.00,260.49 745.00,202.33 L 745.02 0.00 L 831.52 0.00 C881.53,0.00 918.76,0.38 919.76,0.91 C920.34,1.21 922.27,1.85 924.73,2.57 C917.58,1.02 909.08,1.02 831.99,1.24 L 745.50 1.50 L 745.24 202.50 C745.17,260.60 745.16,313.31 745.21,350.34 ZM 315.51 341.78 C304.23,355.60 290.83,367.58 275.30,377.71 C271.43,380.24 267.09,382.76 262.46,385.20 C283.03,373.88 301.46,358.93 315.51,341.78 ZM 745.66 405.33 C745.65,405.31 745.63,405.15 745.62,404.86 C747.11,405.42 759.37,405.72 793.59,405.87 C765.25,405.77 745.92,405.59 745.66,405.33 ZM 350.64 134.57 C354.24,147.73 356.74,161.68 358.09,176.33 C356.92,163.66 354.01,147.62 350.64,134.57 ZM 310.63 59.50 C319.61,69.41 327.40,80.46 333.95,92.55 C327.38,80.58 319.57,69.51 310.63,59.50 ZM 946.99 9.57 C968.34,18.08 987.26,31.55 1000.14,47.76 C987.32,31.63 968.53,18.25 946.99,9.57 ZM 227.41 6.71 C241.22,11.05 253.82,16.47 265.50,23.11 C255.16,17.24 244.11,12.31 232.44,8.41 C230.60,7.79 228.95,7.23 227.41,6.71 ZM 219.19 402.55 C218.20,402.82 217.22,403.08 216.25,403.32 L 219.14 402.57 C219.16,402.56 219.17,402.56 219.19,402.55 Z" fill="rgba(0,0,0,1)"/>
<path d="M 0.00 1001.50 L 442.87 534.75 L 437.19 527.96 C434.06,524.22 431.16,521.24 430.73,521.34 C430.67,521.35 430.67,521.32 430.65,521.30 C430.38,521.04 426.58,524.54 196.57,734.34 L 0.50 913.18 L 0.24 846.88 C0.04,794.67 0.25,780.34 1.24,779.41 C1.93,778.76 97.45,718.49 213.50,645.48 C329.55,572.47 424.58,512.68 424.68,512.61 C424.77,512.54 422.75,508.13 420.18,502.81 C416.81,495.84 415.08,493.27 414.00,493.61 C413.17,493.87 320.18,542.66 207.35,602.04 C94.52,661.42 1.70,710.00 1.09,710.00 C0.29,710.00 0.05,699.50 0.24,672.28 L 0.50 634.55 L 31.00 623.47 C47.78,617.37 140.19,583.85 236.37,548.97 C332.55,514.09 411.44,485.01 411.70,484.35 C411.95,483.69 411.56,481.15 410.83,478.72 L 409.50 474.29 L 294.00 498.00 C79.07,542.14 1.50,558.01 0.75,558.00 C0.34,558.00 0.00,534.18 0.00,505.06 C0.00,475.94 0.34,451.91 0.75,451.67 C1.16,451.42 231.34,450.88 512.25,450.47 L 1023.00 449.73 L 1023.00 503.87 C1023.00,533.64 1022.82,558.00 1022.61,558.00 C1022.40,558.00 992.58,551.68 956.36,543.95 C920.14,536.22 869.46,525.42 843.75,519.95 C759.60,502.04 704.10,490.23 668.00,482.56 C648.47,478.41 631.56,474.80 630.41,474.53 C628.58,474.10 628.10,474.82 626.61,480.17 C625.67,483.55 625.26,486.62 625.70,487.01 C626.14,487.39 715.28,519.37 823.79,558.07 C932.30,596.77 1021.52,628.70 1022.05,629.03 C1022.66,629.41 1022.93,644.76 1022.76,670.09 L 1022.50 710.55 L 996.00 696.35 C981.42,688.54 891.23,640.29 795.56,589.12 L 621.61 496.08 L 617.24 504.27 C614.83,508.78 612.45,512.96 611.95,513.56 C611.34,514.29 677.29,556.60 817.00,645.07 L 1022.94 775.50 L 1022.97 842.46 L 1023.00 909.42 L 1018.75 905.32 C1016.41,903.07 922.52,816.10 810.10,712.05 L 605.70 522.88 L 598.79 530.01 C594.99,533.93 592.02,537.50 592.19,537.93 C592.36,538.37 689.25,642.58 807.50,769.50 L 1022.50 1000.27 L 1023.06 1024.01 L 872.54 1023.50 L 729.02 786.42 C650.08,656.02 584.79,548.28 583.93,546.99 L 582.35 544.64 L 576.24 548.35 L 570.14 552.06 L 579.93 572.28 C585.32,583.40 637.09,689.03 694.97,807.00 C752.85,924.97 800.43,1022.06 800.71,1022.75 C801.11,1023.74 789.55,1024.00 744.86,1023.99 L 688.50 1023.98 L 624.55 790.41 C564.16,569.80 560.50,556.87 558.55,557.36 C547.75,560.07 540.53,562.78 540.72,564.06 C540.85,564.85 556.28,639.53 575.02,730.00 C593.76,820.47 614.94,922.85 622.10,957.50 C629.26,992.15 635.34,1021.29 635.62,1022.25 C636.11,1023.90 633.43,1024.00 589.17,1024.00 L 542.20 1024.00 L 541.56 1010.75 C541.04,999.87 527.00,570.77 527.00,565.59 C527.00,564.23 525.40,564.00 516.08,564.00 L 505.16 564.00 L 504.61 570.25 C504.31,573.69 500.89,673.92 497.01,793.00 C493.14,912.08 489.71,1012.76 489.40,1016.75 L 488.83 1024.00 L 396.96 1024.00 L 397.50 1021.75 C398.18,1018.90 398.54,1017.12 449.48,769.12 C472.90,655.06 491.94,561.62 491.78,561.48 C490.34,560.21 473.43,555.30 472.98,556.03 C472.66,556.55 443.19,662.05 407.50,790.49 L 342.60 1024.00 L 229.97 1024.00 L 231.40 1020.75 C232.18,1018.96 284.61,912.25 347.91,783.62 C411.21,654.98 463.00,549.64 463.00,549.51 C463.00,549.39 460.52,547.64 457.49,545.62 L 451.98 541.97 L 449.24 546.32 C447.73,548.72 381.70,657.16 302.50,787.31 L 158.50 1023.94 L 0.00 1024.00 L 0.00 1001.50 Z" fill="rgba(0,108,52,1)"/>
<path d="M 317.00 405.49 C317.00,404.43 521.52,2.00 522.06,2.00 C523.00,2.00 729.86,404.41 729.35,405.24 C728.71,406.28 606.00,406.21 606.00,405.16 C606.00,404.70 610.73,393.60 616.51,380.50 C622.29,367.40 626.90,356.59 626.76,356.46 C626.62,356.34 611.88,358.43 594.00,361.10 C576.12,363.77 561.05,365.95 560.50,365.96 C559.95,365.96 551.19,351.57 541.03,333.98 C530.87,316.39 522.32,302.01 522.03,302.02 C521.74,302.03 513.62,316.25 504.00,333.62 C494.38,350.98 486.05,365.37 485.50,365.58 C484.95,365.79 468.98,363.78 450.00,361.11 C431.02,358.43 415.39,356.34 415.25,356.46 C415.11,356.57 419.88,367.43 425.85,380.58 C431.82,393.74 436.52,404.84 436.29,405.25 C435.84,406.08 317.00,406.31 317.00,405.49 ZM 745.46 404.75 C745.20,404.06 745.10,313.05 745.24,202.50 L 745.50 1.50 L 831.99 1.24 C917.08,0.99 918.61,1.02 926.99,3.10 C956.75,10.48 983.48,26.80 1000.14,47.76 C1015.90,67.58 1023.36,90.71 1023.28,119.50 C1023.21,149.50 1014.45,171.88 994.65,192.73 C976.31,212.04 947.20,227.61 914.61,235.53 C909.18,236.86 904.60,238.07 904.44,238.23 C904.16,238.51 926.04,269.25 991.77,360.92 C1008.90,384.80 1022.68,404.72 1022.39,405.17 C1022.11,405.63 959.79,406.00 883.91,406.00 C774.45,406.00 745.84,405.74 745.46,404.75 ZM 1.00 203.00 L 1.00 1.00 L 102.75 1.02 C216.59,1.05 209.17,0.62 232.44,8.41 C287.64,26.88 329.07,68.35 347.43,123.50 C352.05,137.39 356.56,159.74 358.09,176.33 C359.59,192.64 358.72,230.81 356.54,244.50 C350.36,283.23 337.29,314.62 316.55,340.50 C293.14,369.71 257.04,392.71 219.14,402.57 L 209.78 405.00 L 105.39 405.00 L 1.00 405.00 L 1.00 203.00 Z" fill="rgba(251,209,21,1)"/>
</g>
</svg>